<?xml version="1.0" encoding="UTF-8"?>
<svg id="Layer_1" xmlns="http://www.w3.org/2000/svg" version="1.1" viewBox="0 0 841.89 595.28">
  <!-- Generator: Adobe Illustrator 29.2.1, SVG Export Plug-In . SVG Version: 2.1.0 Build 116)  -->
  <defs>
    <style>
      .st0 {
        fill: #ee325d;
      }

      .st1 {
        font-family: Bricle, Bricle;
        font-size: 54px;
        letter-spacing: .04em;
      }

      .st1, .st2 {
        fill: #252b67;
      }

      .st3 {
        fill: #ed1c24;
      }

      .st4, .st5, .st6, .st7 {
        fill: none;
      }

      .st4, .st6, .st7 {
        stroke-miterlimit: 10;
      }

      .st4, .st7 {
        stroke: #fff;
      }

      .st6 {
        stroke: #ee325d;
        stroke-width: 4px;
      }

      .st7 {
        stroke-width: 3px;
      }
    </style>
  </defs>
  <path class="st2" d="M509.74,216.59c10.55,10.55,17.13,25.26,17.13,41.52v58.82h-26.64v-24.91c-2.08,2.77-4.33,5.54-6.75,7.96-21.28,20.93-55.53,21.11-76.99.35-.17-.17-.35-.35-.52-.69-10.73-10.55-17.3-25.26-17.3-41.52,0-31.49,24.91-57.26,56.05-58.65.86-.17,1.9-.17,2.77-.17h10.73c11.76,0,22.84,3.63,32.01,9.52,3.46,2.25,6.57,4.84,9.52,7.79ZM500.23,255.52c0-16.26-13.15-29.41-29.58-29.41h-15.92c-16.26,0-29.41,13.15-29.41,29.41v5.19c0,16.26,13.15,29.41,29.41,29.58h15.92c16.44,0,29.58-13.32,29.58-29.58v-5.19Z"/>
  <path class="st2" d="M602.99,199.29h5.36v26.82h-7.96c-16.26,0-29.58,13.15-29.58,29.41v61.42h-26.64v-58.82c0-20.59,10.55-38.75,26.64-49.31,9.34-5.88,20.24-9.52,32.18-9.52Z"/>
  <path class="st2" d="M625.65,199.29v26.81h71.62l-70.93,64.19-.69.52v26.12h69.18l-23.47-26.64h-5.06l70.94-64.19.69-.69v-26.12h-112.28Z"/>
  <g>
    <polygon class="st0" points="210.28 200.91 110.03 307.97 147.82 307.8 161.6 292.83 212.5 292.66 212.67 267.12 185.26 266.95 246.2 200.91 210.28 200.91"/>
    <polygon class="st2" points="206.37 257.93 221.18 257.76 221.35 307.8 246.37 307.97 246.03 214.36 206.37 257.93"/>
  </g>
  <circle class="st2" cx="325.52" cy="256.51" r="20.21"/>
  <g>
    <path class="st0" d="M358.62,271.43h-.42c-4.32,11.07-14.87,18.86-27.33,18.86h-10.55c-16.27,0-29.59-13.32-29.59-29.58v-5.19c0-16.27,13.32-29.42,29.59-29.42h10.55c12.46,0,23.01,7.79,27.33,18.69h.32l18.92-18.92c-10.51-16.03-28.61-26.58-49.17-26.58h-5.36c-32.52,0-58.82,26.3-58.82,58.82s26.3,58.82,58.82,58.82h5.36c20.59,0,38.71-10.58,49.21-26.64l-18.86-18.86Z"/>
    <g>
      <path class="st7" d="M288.28,229.49s17.44-24.59,53.39-15.62"/>
      <path class="st7" d="M345.17,215.63s9.88,1.76,14.78,11.45"/>
    </g>
    <path class="st0" d="M300.07,310.97s-3.02,10.19,6.44,8.58l-.55,10.84,5.09,7.69-.4,6.5-5.79,1.32.45,10.05,5.88,2.51-.74,9.37-4.72,1.44v10.73s5.82,1.6,5.82,1.6l-.48,5.58-5.74-.68-.03,9.45,15.98,12.43,1.78-88.87,4.07-.61-1.78,88.87,8.06-6.68.96-80.42,7.58-1.1-.46-8.42-41.43-.17Z"/>
  </g>
  <rect class="st6" x="350.68" y="335.94" width="386.55" height="64.34" rx="11.23" ry="11.23"/>
  <text class="st1" transform="translate(377.26 393.08)"><tspan x="0" y="0">self drive</tspan></text>
  <g>
    <circle class="st3" cx="362.47" cy="347.23" r="4.36"/>
    <line class="st4" x1="359.2" y1="350.43" x2="366.03" y2="344.33"/>
  </g>
  <g>
    <circle class="st3" cx="362.87" cy="389.68" r="4.36"/>
    <line class="st4" x1="359.61" y1="392.87" x2="366.44" y2="386.78"/>
  </g>
  <g>
    <circle class="st3" cx="725.49" cy="390.32" r="4.36"/>
    <line class="st4" x1="722.22" y1="393.51" x2="729.05" y2="387.41"/>
  </g>
  <g>
    <circle class="st3" cx="725.87" cy="345.72" r="4.36"/>
    <line class="st4" x1="722.61" y1="348.91" x2="729.44" y2="342.82"/>
  </g>
  <path class="st0" d="M744.91,292.17v7.24c0,1.08-.88,1.96-1.96,1.96h-53.41c-.56,0-1.1-.24-1.47-.66l-9.25-10.43h-.11v-.08h64.25c1.08,0,1.96.88,1.96,1.96Z"/>
  <path class="st0" d="M744.66,307.14v8.35c0,.78-.63,1.41-1.41,1.41h-40.18c-.4,0-.79-.17-1.06-.47l-7.4-8.35c-.81-.91-.16-2.35,1.06-2.35h47.59c.78,0,1.41.63,1.41,1.41Z"/>
  <polygon class="st5" points="706.65 301.38 696.7 301.38 696.7 290.29 696.81 290.29 706.65 301.38"/>
  <polyline class="st5" points="696.58 290.03 696.74 290.21 696.81 290.29"/>
</svg>